<svg xmlns="http://www.w3.org/2000/svg" viewBox="0 0 883.74 738.96"><g style="isolation:isolate"><path d="M430.88 179.56H258.93a4 4 0 00-3.12 1.52l172.93 299.77a4 4 0 013.3-1.73H603.8a4 4 0 003.11-1.53L434 178.07a4 4 0 01-3.12 1.49zM251 359.21l-169-.09a4 4 0 00-3.46 6L247 657.18a4 4 0 003.47 2H424.2a4 4 0 003.13-1.53l-173.21-300a4 4 0 01-3.12 1.56zM784.51 294.09l-168.59-292a4 4 0 00-3.46-2L438.82 0a4 4 0 00-3.12 1.53l173.11 300.05a4 4 0 013.12-1.52h169.12a4 4 0 003.46-5.97z" fill="#fccfcf"/><path d="M255.81 181.08l172.93 299.77a4 4 0 00-.71 2.27l.16 172.08a4 4 0 01-.88 2.48l-173.21-300a4 4 0 00.88-2.48V183.56a4 4 0 01.83-2.48zM434.82 4l.06 171.56a4 4 0 01-.91 2.51l172.94 299.55a3.91 3.91 0 00.89-2.47l.13-171.09a4 4 0 01.88-2.48L435.7 1.53a4 4 0 00-.88 2.47z" fill="#f58a8a"/><circle cx="273.2" cy="509.17" r="5.52" fill="#f58a8a" stroke="#ffcdce" stroke-miterlimit="10" stroke-width="2"/><circle cx="409.86" cy="329.6" r="5.52" fill="#f58a8a" stroke="#ffcdce" stroke-miterlimit="10" stroke-width="2"/><circle cx="633.2" cy="150.04" r="5.52" fill="#f58a8a" stroke="#ffcdce" stroke-miterlimit="10" stroke-width="2"/><path d="M397.05 425.92h-.12a.54.54 0 01-.4-.92L255.81 181.08a4 4 0 00-.88 2.48V355.2a4 4 0 01-.88 2.48l122 211.21a.36.36 0 01.19.27l51.09 88.48a4 4 0 00.88-2.48L428 483.12a4 4 0 01.71-2.27zm-16.19 39a1 1 0 011.38-.11c.13.14.05.5-.17.76s-.55.39-.92.09-.4-.56-.29-.73zm-24.5-105.62a.37.37 0 11-.37.37.34.34 0 01.37-.37zm-28.28-16.49c.7.24.81 1 .15 1a.58.58 0 01-.59-.59c0-.3.19-.49.44-.41zm-.37 39.39c.7.24.81 1 .15 1a.58.58 0 01-.59-.58c0-.31.19-.5.44-.42zm-.07 26.44a.35.35 0 01.37.37.37.37 0 01-.74 0 .35.35 0 01.37-.37zM314.75 356a.37.37 0 11-.37.37.35.35 0 01.37-.37zm-.58 39.43a.84.84 0 01.58-.4.72.72 0 01.41 1.21.65.65 0 01-.99-.82zm-1.4-81.84c.26-.43.78-.37 1.07.11a.75.75 0 01-.17.82c-.33.33-.51.3-.76-.11a.9.9 0 01-.14-.83zm-22.23-68.32a.68.68 0 010 1.29c-.27.1-.46-.17-.46-.64s.19-.76.46-.66zm-.09 13.53a.37.37 0 11-.37.37.35.35 0 01.37-.38zm-3.68 7.59c0 .66-.79.55-1-.15-.08-.25.11-.44.44-.44a.58.58 0 01.56.58zm-29.2-50.3c-.77 0-1-.44-.57-1 .21-.26.54-.39.72-.28.52.32.41 1.27-.15 1.27zm2.88 110.82c-.3 0-.56-.17-.56-.36s.26-.37.56-.37.55.17.55.37-.26.35-.55.35zm.7-12.88c-.44.44-1.42-.19-1.1-.7a.86.86 0 01.58-.41.71.71 0 01.52 1.08zm.42-105.26a.6.6 0 01-.5-.39c-.08-.2.15-.39.48-.39s.57.19.5.39a.56.56 0 01-.48.38zm.16-13.29a.37.37 0 11.37-.37.34.34 0 01-.37.36zM269.17 313c-.26.25-.53.34-.66.2a1 1 0 010-.87c.18-.47.34-.52.66-.2s.33.53 0 .87zm0-105.67c-.08-.25.11-.44.44-.44a.58.58 0 01.59.59c0 .65-.79.52-1.03-.16zm2.51 3.61c-.2 0-.37-.26-.37-.55s.17-.56.37-.56.36.26.36.56-.17.54-.36.54zm.73 147.64c-.19 0-.37-.26-.37-.56s.18-.55.37-.55.37.26.37.55-.17.55-.37.55zM272.6 219a.56.56 0 11.55-.55.57.57 0 01-.55.55zm2 2.94a.37.37 0 11.37-.36.34.34 0 01-.35.42zm1.11-5.15a.37.37 0 11.36-.37.35.35 0 01-.34.4zm.73 8.1a.37.37 0 11.37-.37.35.35 0 01-.35.4zm1.11 8.1a.37.37 0 010-.74.37.37 0 010 .74zm6.66 43.74c-.21.08-.4-.15-.4-.48s.19-.57.4-.5a.59.59 0 01.41.48.62.62 0 01-.39.53zm.88-31.35c-.51-.2-.54-.34-.16-.79s.56-.47 1-.13c.65.54.07 1.27-.82.95zm1.14 160.65a.58.58 0 01-.58-.59c0-.33.19-.52.44-.44.72.27.83 1.06.16 1.06zm.59-91.75c-.24.08-.44-.11-.44-.44a.58.58 0 01.59-.59c.69.03.57.82-.13 1.06zm2.58 102.87c-.56.56-1 .15-.65-.66.19-.48.35-.53.67-.21s.33.57 0 .9zm-.07-152.5c-.2 0-.37-.26-.37-.55s.17-.55.37-.55.37.26.37.55-.16.58-.35.58zm.59 7.26c.3-.31.88 0 .88.51 0 .18-.26.33-.55.33-.57.03-.74-.39-.31-.81zm.92 148.41c-.22.07-.41-.15-.41-.48s.19-.57.41-.5a.57.57 0 01.4.48.61.61 0 01-.38.53zm1.25-5.08c-.3 0-.55-.18-.55-.37s.25-.37.55-.37.55.17.55.37-.24.4-.53.4zm5 14.35c-.2 0-.37-.25-.37-.55s.17-.55.37-.55.37.26.37.55-.18.58-.38.58zm-.48-113.36a.62.62 0 01-.08-.73.6.6 0 011.13 0c.34.5-.66 1.2-1.06.76zm3.39 11.41c-.19 0-.36-.26-.36-.55s.17-.55.36-.55.37.25.37.55-.15.55-.37.55zm1.33 108.24c-.7 0-1.1-.6-.77-1.14s1.06-.22 1.2.52c.09.37-.08.62-.41.62zm.33-79.15c-.59 0-.73-.45-.29-.89s.84-.26.84.33a.56.56 0 01-.53.56zm.19-26.14c-.2 0-.37-.26-.37-.56s.17-.55.37-.55.36.26.36.55-.15.56-.34.56zM303 438.46a.37.37 0 11.37-.37.35.35 0 01-.37.37zm1.1-131.07c-.19 0-.36-.26-.36-.55s.17-.55.36-.55.37.25.37.55-.2.55-.4.55zm1.4 129.3a.68.68 0 01-.12-.77.93.93 0 011.57.22c.16.59-.95 1.03-1.48.55zm3 3.05c-.48.3-1.16-.15-.9-.58a.67.67 0 01.53-.33c.51 0 .78.66.36.91zm1.73 3.14c-.77 0-1-.45-.58-1 .22-.25.55-.38.73-.27.51.32.4 1.27-.16 1.27zm2.87-2.21c-.29 0-.55-.17-.55-.37s.26-.37.55-.37.56.17.56.37-.27.37-.57.37zm1.11-4.79a.55.55 0 01-.55-.55.56.56 0 01.55-.55.57.57 0 01.55.55.56.56 0 01-.56.55zm.92 7.73a.34.34 0 01-.37-.36.37.37 0 01.74 0 .34.34 0 01-.38.36zm1.1-70.87a.56.56 0 011.11 0 .56.56 0 01-1.11 0zm1.07 21.71a1 1 0 01-.33-.76c0-.55.77-.74 1.21-.29s-.48 1.3-.89 1.05zm1.33 47.32c-.17.3-.38.32-.63.08a.68.68 0 01-.11-.81c.17-.3.38-.32.63-.08a.68.68 0 01.1.81zm.62-58.2c-.09-.26 0-.38.3-.3s.43.26.41.41c-.07.44-.57.32-.72-.11zm1.59-4.39c-.59 0-.76-.42-.33-.84s.88 0 .88.51c-.01.15-.27.33-.56.33zm2.39 63.7c-.2 0-.37-.26-.37-.55s.17-.56.37-.56.37.26.37.56-.18.55-.38.55zm.37-39.4a.37.37 0 11.37-.36.34.34 0 01-.38.36zm.55-65.9c-.29 0-.55-.17-.55-.37s.26-.37.55-.37.55.18.55.37-.27.37-.56.37zm.92 8.1a.37.37 0 11.37-.37.35.35 0 01-.38.37zm1.57 89.32c.13-.33.4-.59.63-.59.59 0 .87 1.11.4 1.58s-1.34-.18-1.03-.99zm1.92 8.85c-.7.28-1.08 0-.74-.57a.61.61 0 011.1 0c.13.17-.03.44-.36.57zm2.21-36.32c-.17.3-.38.32-.63.08a.68.68 0 01-.11-.81c.17-.3.38-.32.63-.08a.68.68 0 01.11.81zm9.75 28.72a.76.76 0 01-.56-1.1.4.4 0 01.56-.17c.48.27.48 1.27 0 1.27zm1.56-37.15c-.09-.29.08-.43.45-.35s.6.3.59.5c-.03.56-.84.44-1.04-.15zm1.94 8.43c-.17.3-.38.32-.62.08a.67.67 0 01-.12-.81c.18-.3.39-.32.63-.08a.67.67 0 01.09.81zm1.66 16.2a.37.37 0 11.37-.36.34.34 0 01-.37.36zm1.47 2.76c0-.29.17-.55.37-.55s.37.26.37.55-.17.56-.37.56-.37-.26-.37-.56zm.74 87.45c-.2 0-.37-.26-.37-.56s.17-.55.37-.55.37.26.37.55-.18.56-.37.56zm.81-18.76c-.08-.21.14-.39.48-.39s.56.18.49.39a.54.54 0 01-.48.38.56.56 0 01-.49-.38zm1 21.7a.35.35 0 01-.37-.37.37.37 0 01.74 0 .35.35 0 01-.34.37zm.37-79.38c0-.66.79-.55 1 .15.08.25-.11.44-.44.44a.58.58 0 01-.53-.59zm.73 74.23a.37.37 0 11.37-.37.35.35 0 01-.34.37zm.08-66.2c-.09-.25.11-.44.44-.44a.58.58 0 01.59.59c.03.66-.77.55-1-.15zm1.84-4.42c-.56.56-1 .15-.65-.66.19-.48.34-.53.67-.2s.34.53.01.86zm1.28 68.78c-.59 0-.73-.45-.29-.89s.84-.26.84.33a.56.56 0 01-.55.56zm.55-65.91a.37.37 0 11.37-.37.34.34 0 01-.41.39zm.58-5.56a.65.65 0 01.53-.33c.51 0 .78.66.37.92s-1.21-.15-.94-.59zm.9 8.36a.58.58 0 01.59-.59c.66 0 .55.8-.15 1-.29.11-.47-.08-.47-.41zm1.1 60.9a.37.37 0 11.37-.37.35.35 0 01-.41.37zm.59-65.54a.58.58 0 01-.59-.59c0-.33.19-.52.44-.44.66.24.78 1.03.11 1.03zm3.83-33.65a.58.58 0 01.59-.59c.66 0 .55.8-.15 1-.29.1-.48-.08-.48-.41zm.74 87a.37.37 0 010-.74.37.37 0 010 .74zm1.51-44.18c-.48 0-.82-.58-.52-.89s.85-.25.85.33c-.04.34-.2.6-.37.6zm1.43-10.68a.37.37 0 11.37.37.35.35 0 01-.41-.33zm.74 100.51a.37.37 0 11.37-.37.35.35 0 01-.41.41zm1.84 3.31c-.2 0-.37-.25-.37-.55s.17-.55.37-.55.37.26.37.55-.18.59-.41.59zm.81-106.32c.7.23.81 1 .15 1a.58.58 0 01-.59-.59c-.04-.26.15-.46.4-.37zm.51 101.15c-.56.47-1.15-.09-.76-.72a.6.6 0 011.07 0c.08.2-.05.52-.35.76zm.52-39.56c-.48.29-1.17-.15-.9-.59a.65.65 0 01.53-.33c.48.04.72.7.33.96zm6.26 43.63c-.2 0-.37-.26-.37-.55s.17-.55.37-.55.37.25.37.55-.22.59-.41.59zm1.14-5c-.44.26-.89-.42-.59-.9a.7.7 0 01.55-.37c.4.05.43 1.05-.01 1.32zm.57-13.11c-.38.33-.61.3-1-.11a.9.9 0 01-.23-.9c.33-.52.79-.48 1.28.11.33.41.33.66-.09.95zm2.14 2.67c-.31.51-1.27.37-1.27-.18a1.22 1.22 0 01.25-.74c.26-.28 1.26.57.98 1.01zm.93 42.67a.34.34 0 01-.36-.36.37.37 0 11.73 0 .34.34 0 01-.41.41zm0-13c-.21.08-.4-.14-.4-.47s.19-.57.4-.5a.59.59 0 01.41.48.61.61 0 01-.41.58zm.37-13.18c-.48 0-.82-.58-.52-.88s.85-.26.85.33c0 .39-.15.64-.33.64zm1.1-18c-.47 0-.81-.58-.51-.88s.85-.26.85.33c0 .35-.16.6-.34.6zm2.95-115.31c-.21.08-.41-.15-.41-.48s.2-.56.41-.49a.56.56 0 01.4.47.6.6 0 01-.4.55zm1.51 2.36c-.08-.25.11-.44.44-.44a.58.58 0 01.59.59c0 .71-.79.6-1.03-.1zm2.13 156.4c-.19 0-.36-.26-.36-.55s.17-.56.36-.56.37.26.37.56-.12.6-.37.6zm1.07-17.85a1 1 0 01-.33-.76c0-.55.77-.74 1.21-.3s-.47 1.34-.88 1.06zm1.14 7.56a.37.37 0 010-.74.37.37 0 110 .74zm1.73-87.26c-.19 0-.36-.26-.36-.55s.17-.55.36-.55.37.26.37.55-.17.58-.37.58zm.74-45.14c0-.66.79-.55 1 .15.08.25-.11.44-.44.44a.58.58 0 01-.56-.56zm1.1 48.09c-.19 0-.36-.26-.36-.55s.17-.56.36-.56.37.26.37.56-.17.58-.37.58zm.37-5.34a.56.56 0 11.56.55.57.57 0 01-.56-.52zm.89 117.26c-.48 0-.82-.58-.52-.88s.85-.26.85.33c0 .32-.12.58-.33.58zm-.44-157.13c-.09-.25.11-.45.44-.45a.58.58 0 01.59.59c0 .7-.8.59-1.03-.11zm2.13 43.37c-.2 0-.37-.26-.37-.56s.17-.55.37-.55.37.26.37.55-.17.59-.37.59zm2.19 2.87a1.11 1.11 0 01-.64-.65c-.09-.29 0-.43.33-.33a1.2 1.2 0 01.64.65c.1.31 0 .45-.33.36zm1.22-41a.4.4 0 01.4-.7.39.39 0 01.15.56.38.38 0 01-.55.17zm.64 44a.37.37 0 11.37-.37.35.35 0 01-.37.42zm2.5 15.72c-.14.78-.78.73-.95-.07a.45.45 0 01.48-.56c.38.05.54.27.44.68zm-.46-12.74a.57.57 0 01-.49-.39c-.08-.2.14-.38.48-.38s.56.18.49.38a.55.55 0 01-.48.44zm2 3.28c-.2 0-.37-.26-.37-.56s.17-.55.37-.55.37.26.37.55-.16.61-.36.61zm.56 11.08c-.09-.29.08-.43.45-.35s.6.29.59.5c-.02.6-.83.49-1.03-.1zm1.76-44.59a.37.37 0 11.37.37.35.35 0 01-.36-.32zm.81 31.67a.56.56 0 11.55-.56.57.57 0 01-.54.61zm1.44 72.08c-.22.08-.41-.14-.41-.47s.19-.57.41-.5a.57.57 0 01.4.48.6.6 0 01-.39.54zm.62-69.14c-.48 0-.82-.58-.51-.88s.84-.26.84.33c.01.34-.09.6-.32.6zm1.84 2.87c-.21.08-.4-.14-.4-.48s.19-.56.4-.49a.59.59 0 01.41.48.61.61 0 01-.4.54zm.63-22.75c-.17.29-.38.32-.63.07a.68.68 0 01-.11-.81c.17-.29.38-.32.63-.07a.68.68 0 01.12.86zm1.54 125.55a.37.37 0 11.37-.37.34.34 0 01-.36.42zm1.88-96.54c-.21.08-.4-.15-.4-.48s.19-.56.4-.49a.57.57 0 01.41.47.61.61 0 01-.4.55zm1.07-5.08c-.2 0-.37-.26-.37-.55s.17-.55.37-.55.37.25.37.55-.16.6-.36.6zm2.73-19.69a.64.64 0 01-1-.81.84.84 0 01.58-.41.72.72 0 01.42 1.22zm.92 82a.58.58 0 01-.58-.59c0-.33.19-.52.44-.44.7.2.77 1.03.14 1.03zm0-56.16a1 1 0 01-.37-.84c0-.55.77-.74 1.21-.29s-.43 1.34-.84 1.09zm2.18 19.71c-.59 0-.74-.44-.3-.88s.85-.26.85.33a.56.56 0 01-.55.51zM607.26 377.71a.85.85 0 01.61-.38l.06-73.27a4 4 0 01.88-2.48L476.35 72c-.47.19-1.05-.22-.8-.63a.71.71 0 01.29-.25l-5.06-8.78c.16.29 0 .6-.55.6s-.78-.24-.78-.57.26-.52.63-.45a1 1 0 01.67.39L435.7 1.53a4 4 0 00-.88 2.47l.06 171.56a4 4 0 01-.91 2.51l65.65 113.72a.64.64 0 01.32.54l107 185.28a3.91 3.91 0 00.89-2.47l.07-96.43a.72.72 0 01-.64-1zM539 279a.37.37 0 11-.37.37.35.35 0 01.37-.37zm-.18 13.26c.29 0 .55.17.55.36s-.26.37-.55.37-.56-.17-.56-.37.23-.32.53-.32zm-1.29-15.84c0 .2-.26.37-.56.37s-.55-.17-.55-.37.26-.36.55-.36.53.21.53.4zm-.3 13.06a.6.6 0 01-.4.49c-.22.08-.41-.14-.41-.48s.19-.56.41-.49a.56.56 0 01.37.52zm-2.28-16.74c.2 0 .37.26.37.55s-.17.56-.37.56-.37-.26-.37-.56.14-.51.34-.51zm-.74 5.75c0 .66-.79.55-1-.15-.08-.25.11-.44.44-.44a.57.57 0 01.53.63zm0 13a.37.37 0 11-.36-.37.34.34 0 01.33.44zm-1.1-21.72c.2 0 .37.25.37.55s-.17.55-.37.55-.37-.26-.37-.55.14-.48.34-.48zm-.52-59.65a.58.58 0 01-.59-.59c0-.66.8-.55 1 .15.09.32-.11.51-.44.51zm.89 7c.19 0 .37.26.37.55s-.18.55-.37.55-.37-.26-.37-.55.14-.48.34-.48zm-.37-20.77a.55.55 0 01-.55.52c-.56 0-.77-.78-.33-1.22s.85.15.85.77zm-1.47-8.32a.37.37 0 010 .74.37.37 0 110-.74zm-2.21 10c.25.09.43.25.41.4-.06.45-.56.37-.72-.11-.12-.2.02-.32.28-.24zm-2-3c.17-.3.38-.32.63-.08a.68.68 0 01.11.81c-.17.3-.38.32-.63.08a.68.68 0 01-.17-.74zm-16 1.84a.34.34 0 01.36.37.34.34 0 01-.36.36.34.34 0 01-.37-.36.35.35 0 01.3-.3zm-6.85-43.45a.58.58 0 01.59.59c0 .67-.8.56-1-.14-.17-.18.01-.38.34-.38zm-1.07 18a.56.56 0 11-.55.56.57.57 0 01.48-.45zm.18 26.88a.34.34 0 01-.36.37.37.37 0 010-.74.34.34 0 01.29.48zm-1.69-8.47c.31-.3.89 0 .89.52 0 .17-.26.33-.55.33-.59 0-.76-.42-.34-.85zm.15 26.25a.37.37 0 11-.37.37.35.35 0 01.37-.37zm-3.15-50.4c.25-.41 1.31-.11 1.31.37a.8.8 0 01-.4.54.69.69 0 01-.91-.91zm-.71 18c.29 0 .55.18.55.37s-.26.37-.55.37-.56-.17-.56-.37.27-.37.56-.37zm-.11 26.22c.7.24.81 1 .14 1a.58.58 0 01-.59-.59c0-.31.2-.49.45-.41zM461.54 55c.43-.42.85-.25.85.34 0 .29-.16.55-.33.55-.48.04-.82-.54-.52-.89zm-1.69 97.11c.3-.37.56-.42.81-.17.48.49-.26 1.32-.85 1-.31-.2-.3-.39.04-.79zm-.41 18.46a.56.56 0 01-.55.56c-.59 0-.74-.44-.31-.87s.86-.26.86.35zm-3.86 1.66c.17-.29.38-.32.62-.07a.67.67 0 01.11.81c-.17.29-.38.32-.62.07a.67.67 0 01-.11-.77zM442.06 59.61a.58.58 0 01-.59-.59c0-.67.8-.55 1 .15.12.25-.08.44-.41.44zm1.62 42.39a.37.37 0 11.37-.37.35.35 0 01-.37.37zm2.14-31c-.19 0-.37-.25-.37-.55s.18-.55.37-.55.37.26.37.55-.19.55-.37.55zM456 186.26a.57.57 0 01-.56-.55.56.56 0 11.56.55zm1.23-31.26c-.19 0-.36-.26-.36-.56s.17-.55.36-.55.37.26.37.55-.17.56-.37.56zm.52-84.67c-.08-.2.14-.38.47-.38s.57.18.5.38a.54.54 0 01-.48.39.56.56 0 01-.49-.42zm.29 39.77c-.07-.21.15-.39.48-.39s.57.18.5.39a.54.54 0 01-.48.38.59.59 0 01-.54-.41zm.85 74.35a.57.57 0 01-.55-.55.56.56 0 01.55-.55.55.55 0 01.55.55.56.56 0 01-.55.52zm.55-5.71a.56.56 0 11.56.56.57.57 0 01-.56-.59zm1.51 8.66c-.48 0-.81-.59-.51-.89s.84-.26.84.33c0 .27-.15.53-.28.53zm.19-13.26a.58.58 0 01-.59-.59c0-.33.19-.52.44-.44.7.21.81 1 .15 1zm.14-105.48a.56.56 0 11.56.55.57.57 0 01-.56-.58zm1.36 29.64c-.59 0-.75-.43-.33-.85s.89-.29.89.3a.57.57 0 01-.56.52zm0-40.1a.61.61 0 011.1 0c.13.2 0 .47-.36.6-.7.2-1.08-.07-.74-.63zm1.22 127a.37.37 0 11.37-.37.35.35 0 01-.37.33zm1.36-123.34c-.59 0-.75-.42-.33-.85s.88 0 .88.52c0 .13-.26.29-.55.29zm.63-5.51c-.08-.2.14-.38.48-.38s.56.18.49.38a.54.54 0 01-.48.39.56.56 0 01-.49-.43zm1.14 14a.56.56 0 010-1.11.56.56 0 010 1.11zm1.49 115.57a.68.68 0 01.54-.34c.51 0 .78.66.36.92s-1.16-.21-.9-.64zm1.46 8.5c-.3 0-.56-.17-.56-.37s.26-.37.56-.37.55.18.55.37-.26.31-.55.31zm1.76-123.65a.65.65 0 01-1-.81.83.83 0 01.59-.41.72.72 0 01.41 1.22zm.88 55.85a.56.56 0 11.56-.56.57.57 0 01-.56.56zm1.42 60.75c-.59 0-.76-.43-.33-.85s.88 0 .88.51c-.01.18-.27.34-.55.34zm1.14 8.1a.58.58 0 01-.59-.59c0-.67.79-.56 1 .14.1.25-.09.45-.42.45zm0-118.56a.56.56 0 01-.55-.55.57.57 0 01.55-.55.56.56 0 01.55.55.55.55 0 01-.53.55zm.85 47.5c0-.2.26-.37.55-.37s.56.17.56.37-.26.37-.56.37-.54-.18-.54-.37zm1.65 60.78c-.32.51-1.28.37-1.28-.18a1.22 1.22 0 01.26-.74c.38-.33 1.29.52 1.04.92zm.48-96.86a.58.58 0 01-.59-.59c0-.67.8-.55 1 .15.14.24-.06.44-.39.44zm1.92 95a.37.37 0 11.37-.37.35.35 0 01-.35.36zm6.81-69.59a.57.57 0 01-.55-.55.56.56 0 011.11 0 .57.57 0 01-.54.54zm1.11 95c-.59 0-.76-.42-.33-.85s.88 0 .88.52c.02.15-.24.31-.51.31zm1.09-97.53a.93.93 0 011.57.22c.19.59-1 1-1.45.55a.68.68 0 01-.1-.79zm1 87.51c-.25.09-.45-.11-.45-.44a.58.58 0 01.59-.59c.7-.02.59.78-.11 1.01zm1.23-5a.58.58 0 01-.5-.39c-.08-.2.15-.38.48-.38s.57.18.5.38a.55.55 0 01-.45.33zm6.31 29.64c.43-.42.85-.26.85.33 0 .3-.15.55-.33.55-.45-.06-.79-.64-.49-.94zm1 48.38a.56.56 0 11.56-.55.57.57 0 01-.5.49zm1.68-44.74c-.51.32-1.22-.39-.91-.91a.84.84 0 01.55-.4c.48-.03.77 1.03.36 1.31zm-.11-13.1a.57.57 0 01-.58-.58c0-.34.19-.53.44-.45.7.21.81 1 .14 1zm1.44 56c-.52 0-1-.92-.66-1.26a1.1 1.1 0 011.32 0c.34.28-.14 1.2-.66 1.2zm.63-5.88c-.08-.2.14-.38.47-.38s.57.18.5.38a.54.54 0 01-.48.39.56.56 0 01-.49-.41zm.73 8.16c-.08-.25.11-.44.44-.44a.58.58 0 01.59.59c.01.6-.79.49-.99-.21zm1-91.93c0-.34.19-.57.41-.5a.57.57 0 01.4.48.62.62 0 01-.4.5c-.19.01-.37-.21-.37-.54zm.74 87.44c-.2 0-.37-.26-.37-.55s.17-.56.37-.56.37.26.37.56-.14.49-.34.49zm.77-78.79c-.48 0-.82-.58-.51-.89s.84-.25.84.34c.03.23-.12.49-.3.49zm5.86 122.23a.35.35 0 01-.37-.37.34.34 0 01.37-.36.34.34 0 01.36.36.34.34 0 01-.33.31zm.36-52.65a.37.37 0 010-.73.37.37 0 110 .73zm1.66 55.6c-.29 0-.55-.17-.55-.37s.26-.37.55-.37.55.17.55.37-.22.29-.52.29zm1.11-118.19c-.3 0-.56-.17-.56-.36s.26-.37.56-.37.55.17.55.37-.23.3-.52.3zm2 116.35c-.2 0-.37-.26-.37-.56s.17-.55.37-.55.37.26.37.55-.12.5-.32.5zm2.29-102.65c-.09-.25.1-.44.44-.44a.58.58 0 01.58.59c.05.6-.77.49-.97-.21zm7.84 4.59c-.74.28-1.08-.05-.8-.76s.86-.74 1.14 0a.56.56 0 01-.29.7zm.24-5.53c-.1-.48.06-.64.53-.55.81.15.94 1.23.15 1.23a.79.79 0 01-.63-.74zm1.45 8.52c-.22.08-.41-.14-.41-.47s.19-.57.41-.5a.57.57 0 01.4.48.6.6 0 01-.35.43zm.39-5.57c-.09-.48.06-.65.53-.56.81.16.94 1.24.15 1.24a.81.81 0 01-.63-.74zm.86 60.51c.17-.3.38-.32.63-.08a.68.68 0 01.11.81c-.17.3-.38.32-.63.08a.68.68 0 01-.06-.87zm1.33 35.08a.65.65 0 01-1-.81.84.84 0 01.58-.4.72.72 0 01.47 1.15zm0-13c-.2 0-.37-.26-.37-.56s.17-.55.37-.55.37.26.37.55-.16.51-.36.51zm.07-79.46c-.08-.24.11-.44.45-.44a.58.58 0 01.58.59c.04.62-.78.5-1.02-.2zm1 61.42c-.19 0-.36-.26-.36-.56s.17-.55.36-.55.37.26.37.55-.13.51-.3.51zm.37 21a.92.92 0 01-.14-.83c.26-.42.78-.37 1.07.11a.76.76 0 01-.17.83c-.28.27-.47.24-.72-.16zm1.29 8.08c-.29 0-.55-.17-.55-.37s.26-.37.55-.37.55.18.55.37-.21.32-.51.32zm1.11-5.15c-.3 0-.56-.18-.56-.37s.26-.37.56-.37.55.17.55.37-.25.29-.51.29zm1-4.86c-.21.07-.4-.15-.4-.48s.19-.57.4-.5a.59.59 0 01.41.48.62.62 0 01-.42.45zm-.26-27.22a.84.84 0 01.55-.4c.48 0 .77 1.06.37 1.31s-1.23-.36-.92-.91zm1.36 35.31c-.48 0-.82-.58-.52-.88s.85-.26.85.33c0 .32-.13.58-.33.58zm.88-5.15c-.59 0-.74-.45-.29-.89s.84-.26.84.33a.56.56 0 01-.55.59zm.77 8.11c-.44-.37-.48-.62-.16-1s.5-.44 1 0c.76.84.01 1.73-.84 1.03zm1.26-92.43a.34.34 0 01-.37-.36.37.37 0 11.73 0 .34.34 0 01-.36.39zm.92 95.36c-.3 0-.56-.17-.56-.37s.26-.37.56-.37.55.18.55.37-.26.4-.55.4zm.22-12.88c-.48 0-.82-.59-.52-.89s.85-.26.85.33c0 .33-.18.59-.33.59zm3.53-80c-.19 0-.37-.26-.37-.56s.18-.55.37-.55.37.26.37.55-.17.62-.37.62zm1.22-6.19a.35.35 0 01-.37-.37.34.34 0 01.37-.36.34.34 0 01.36.36.34.34 0 01-.36.43zm3.79 46.69a.58.58 0 01-.59-.59c0-.33.19-.53.44-.44.7.29.81 1.09.15 1.09zm4.12 65.47c-.33-.13-.49-.39-.36-.6a.61.61 0 011.11 0c.33.65-.05.94-.75.66zm1.7-57.37c-.22.07-.41-.15-.41-.48s.19-.57.41-.5a.57.57 0 01.4.48.61.61 0 01-.4.58zm1.06 41.9a1.22 1.22 0 01.26-.74c.34-.33 1.27.51 1 .92s-1.26.43-1.26-.12zm1.66 21.86a.56.56 0 01-.55-.55.55.55 0 111.1 0 .56.56 0 01-.55.61zm1.73-63.25c-.08-.25.11-.44.44-.44a.58.58 0 01.59.59c0 .73-.79.61-1.03-.09zm2.76-8.61a.37.37 0 11.37-.37.35.35 0 01-.37.43zm7.16 36.63c.21-.26.54-.38.72-.27.52.31.41 1.26-.15 1.26-.77.06-1.03-.38-.57-.93zm.5 14.25a.56.56 0 11.55-.55.57.57 0 01-.55.61z" fill="none"/><path d="M327.82 443.28c-.34.56 0 .85.74.57.33-.13.49-.4.36-.6a.61.61 0 00-1.1.03z" fill="#fff"/><circle cx="354.51" cy="443.61" r=".37" fill="#fff"/><path d="M362.1 407.9a.58.58 0 00-.59.59c0 .33.19.52.44.44.7-.23.81-1.03.15-1.03z" fill="#fff"/><circle cx="357.09" cy="507.31" r=".37" fill="#fff"/><path d="M355.62 438.09a.65.65 0 00-.53.33c-.27.44.42.88.9.59s.14-.92-.37-.92zM356.58 446.19a.58.58 0 00-.59.59c0 .33.19.52.44.44.7-.22.81-1.03.15-1.03zM357.53 441.11c-.25-.08-.44.11-.44.44a.58.58 0 00.59.59c.67 0 .55-.79-.15-1.03zM368.73 439.2c.66 0 .55-.8-.15-1-.25-.09-.44.11-.44.44a.58.58 0 00.59.56zM363.24 450.46c-.3.31 0 .89.52.89.17 0 .33-.26.33-.56 0-.58-.43-.79-.85-.33zM369.24 498.84a.65.65 0 00-.53.33c-.27.44.42.88.9.59s.15-.92-.37-.92zM368.33 538.6c-.39.63.2 1.19.76.72.3-.24.43-.56.31-.75a.6.6 0 00-1.07.03z" fill="#fff"/><circle cx="365.56" cy="440.67" r=".37" fill="#fff"/><ellipse cx="375.87" cy="542.84" rx=".37" ry=".55" fill="#fff"/><circle cx="365.93" cy="540.81" r=".37" fill="#fff"/><path d="M367.77 543.39c-.2 0-.37.26-.37.55s.17.55.37.55.37-.25.37-.55-.14-.55-.37-.55z" fill="#fff"/><circle cx="345.68" cy="423.37" r=".37" fill="#fff"/><ellipse cx="347.52" cy="426.49" rx=".37" ry=".55" fill="#fff"/><path d="M343.28 406.8a.67.67 0 00.12.81c.24.24.45.22.62-.08a.67.67 0 00-.11-.81c-.24-.24-.45-.22-.63.08zM330 406.8a.68.68 0 00.11.81c.25.24.46.22.63-.08a.68.68 0 00-.11-.81c-.22-.24-.43-.22-.63.08z" fill="#fff"/><ellipse cx="347.89" cy="513.38" rx=".37" ry=".55" fill="#fff"/><path d="M340.52 435a.4.4 0 00-.56.17.76.76 0 00.56 1.1c.48-.02.48-1.02 0-1.27zM342.53 398.75c-.37-.08-.54.06-.45.35.2.59 1 .71 1 .15.05-.2-.22-.43-.55-.5zM350.83 511a.37.37 0 10.37.37.35.35 0 00-.37-.37zM353.67 509c-.44.44-.3.89.29.89a.56.56 0 00.55-.56c0-.59-.42-.75-.84-.33zM349.67 495.18c.07-.21-.16-.39-.49-.39s-.56.18-.48.39a.56.56 0 00.49.38.54.54 0 00.48-.38zM352.1 440.45c-.31.81.09 1.22.65.66.33-.33.33-.55 0-.86s-.46-.25-.65.2zM351.35 445.09c-.33 0-.53.19-.44.44.23.7 1 .81 1 .15a.58.58 0 00-.56-.59z" fill="#fff"/><circle cx="349.73" cy="516.51" r=".37" fill="#fff"/><path d="M351.13 437.65c-.24-.7-1-.81-1-.15a.58.58 0 00.59.59c.28 0 .49-.19.41-.44z" fill="#fff"/><circle cx="362.25" cy="495.16" r=".37" fill="#fff"/><path d="M399.36 475.33c-.29-.1-.42 0-.33.33a1.11 1.11 0 00.64.65c.3.09.43-.05.33-.33a1.2 1.2 0 00-.64-.65zM401.44 435.17a.39.39 0 00-.15-.56.4.4 0 10.15.56z" fill="#fff"/><circle cx="401.53" cy="478.96" r=".37" fill="#fff"/><path d="M403.56 494.42a.45.45 0 00-.48.56c.17.8.81.85.95.07.07-.41-.09-.63-.47-.63zM397.48 472.33c-.2 0-.37.26-.37.55s.17.56.37.56.37-.26.37-.56-.17-.55-.37-.55zM395.27 586.32c-.3.3 0 .88.52.88.17 0 .33-.26.33-.55 0-.59-.43-.75-.85-.33z" fill="#fff"/><circle cx="395.46" cy="469.94" r=".55" fill="#fff"/><path d="M395.79 429.62c-.33 0-.53.2-.44.45.23.7 1 .81 1 .14a.58.58 0 00-.56-.59z" fill="#fff"/><circle cx="408.27" cy="452.08" r=".37" fill="#fff"/><path d="M408.71 482.64a.56.56 0 10.55.55.57.57 0 00-.55-.55zM410.15 554.86c-.22-.07-.41.16-.41.5s.19.55.41.47a.6.6 0 00.4-.49.57.57 0 00-.4-.48zM403.56 481.54c-.34 0-.56.18-.48.38a.57.57 0 00.49.39.55.55 0 00.48-.39c.07-.2-.16-.38-.49-.38zM406.59 496.32c-.37-.08-.54.06-.45.35.2.59 1 .7 1 .15.05-.21-.22-.43-.55-.5z" fill="#fff"/><ellipse cx="405.58" cy="485.03" rx=".37" ry=".55" fill="#fff"/><path d="M381.65 525.57c-.3.3 0 .88.51.88.18 0 .34-.25.34-.55 0-.59-.43-.75-.85-.33zM380.69 556.7c-.21-.07-.4.16-.4.5s.19.55.4.47a.61.61 0 00.41-.49.59.59 0 00-.41-.48zM410.26 485.81c-.31.3 0 .88.51.88.18 0 .33-.26.33-.55 0-.59-.42-.76-.84-.33zM377 537.13a.7.7 0 00-.55.37c-.3.48.15 1.16.59.9s.37-1.27-.04-1.27zM376.39 524.28a.9.9 0 00.23.9c.35.41.58.44 1 .11s.39-.54.09-.9c-.53-.59-.99-.63-1.32-.11zM385.11 410.17c-.21-.07-.41.16-.41.49s.2.56.41.48a.6.6 0 00.4-.5.56.56 0 00-.4-.47zM378.7 527a1.22 1.22 0 00-.25.74c0 .55 1 .69 1.27.18s-.72-1.21-1.02-.92zM394.53 474.17c-.19 0-.36.26-.36.56s.17.55.36.55.37-.26.37-.55-.17-.56-.37-.56z" fill="#fff"/><circle cx="380.65" cy="570.27" r=".37" fill="#fff"/><ellipse cx="392.69" cy="471.78" rx=".37" ry=".55" fill="#fff"/><circle cx="390.96" cy="559.22" r=".37" fill="#fff"/><path d="M394.46 427.34c-.24-.7-1-.81-1-.15a.58.58 0 00.59.59c.3 0 .49-.19.41-.44zM387.06 413.06c-.33 0-.52.19-.44.44.24.7 1 .81 1 .15a.58.58 0 00-.56-.59zM390.7 551c-.44-.44-1.21-.25-1.21.3a1 1 0 00.33.76c.41.22 1.18-.75.88-1.06z" fill="#fff"/><ellipse cx="388.75" cy="569.35" rx=".37" ry=".55" fill="#fff"/><path d="M380.54 543.61c-.3.3 0 .88.52.88.18 0 .33-.25.33-.55 0-.59-.39-.75-.85-.33zM269.61 206.88c-.33 0-.52.19-.44.44.24.7 1 .81 1 .15a.58.58 0 00-.56-.59z" fill="#fff"/><ellipse cx="271.68" cy="210.38" rx=".37" ry=".55" fill="#fff"/><path d="M268.53 312.32a1 1 0 000 .87c.13.14.4.05.66-.2s.34-.55 0-.87-.48-.27-.66.2z" fill="#fff"/><circle cx="261.73" cy="195.1" r=".37" fill="#fff"/><ellipse cx="272.41" cy="358.01" rx=".37" ry=".55" fill="#fff"/><path d="M260.63 312.91a.86.86 0 00-.58.41c-.32.51.66 1.14 1.1.7a.71.71 0 00-.52-1.11zM261.55 208c-.33 0-.56.19-.48.39a.6.6 0 00.5.39.56.56 0 00.48-.39c.07-.22-.17-.39-.5-.39zM284.23 275.78c-.21-.07-.4.17-.4.5s.19.56.4.48a.62.62 0 00.41-.5.59.59 0 00-.41-.48zM277.57 232.28a.37.37 0 000 .74.37.37 0 000-.74z" fill="#fff"/><ellipse cx="260.45" cy="326.54" rx=".55" ry=".37" fill="#fff"/><path d="M327.27 434.41c-.23 0-.5.26-.63.59-.31.81.47 1.56 1 1s.22-1.59-.37-1.59z" fill="#fff"/><circle cx="274.62" cy="221.61" r=".37" fill="#fff"/><path d="M272.6 217.92a.56.56 0 10.55.56.57.57 0 00-.55-.56z" fill="#fff"/><circle cx="275.73" cy="216.45" r=".37" fill="#fff"/><circle cx="276.46" cy="224.55" r=".37" fill="#fff"/><path d="M327.86 383.23c.66 0 .55-.79-.15-1-.25-.08-.44.11-.44.45a.58.58 0 00.59.55zM328.23 343.84c.66 0 .55-.79-.15-1-.25-.08-.44.11-.44.44a.58.58 0 00.59.56zM286.11 405c-.25-.08-.44.11-.44.44a.58.58 0 00.58.59c.67.03.56-.76-.14-1.03z" fill="#fff"/><circle cx="327.64" cy="409.01" r=".37" fill="#fff"/><circle cx="356.36" cy="359.67" r=".37" fill="#fff"/><path d="M382.07 465.58c.22-.26.3-.62.17-.76a1 1 0 00-1.38.11c-.11.17 0 .53.29.74s.61.27.92-.09zM396.93 425.94h.12l-.52-.9a.54.54 0 00.4.92zM376.05 568.89l.17.31a.36.36 0 00-.17-.31zM290.54 246.55a.68.68 0 000-1.29c-.27-.1-.46.17-.46.65s.19.74.46.64z" fill="#fff"/><circle cx="314.75" cy="356.36" r=".37" fill="#fff"/><path d="M285.74 266.23c.24.7 1 .81 1 .15a.58.58 0 00-.59-.59c-.3 0-.49.21-.41.44zM257.72 214.81c-.18-.11-.51 0-.72.28-.46.55-.2 1 .57 1 .56-.01.67-.96.15-1.28z" fill="#fff"/><circle cx="290.45" cy="259.16" r=".37" fill="#fff"/><path d="M315.16 396.23a.72.72 0 00-.41-1.21.84.84 0 00-.58.4.65.65 0 00.99.81zM313.67 314.51a.75.75 0 00.17-.82c-.29-.48-.81-.54-1.07-.11a.9.9 0 00.14.82c.25.41.43.44.76.11zM285.92 244.49c-.41-.34-.6-.32-1 .13s-.35.59.16.79c.92.32 1.5-.41.84-.92zM287 313.28a.58.58 0 00-.59.59c0 .33.2.52.44.44.69-.24.81-1.03.15-1.03z" fill="#fff"/><circle cx="315.12" cy="443.25" r=".37" fill="#fff"/><path d="M318.17 393.4c-.44-.45-1.21-.26-1.21.29a1 1 0 00.33.76c.41.25 1.21-.72.88-1.05zM317.88 441a.68.68 0 00.11.81c.25.24.46.22.63-.08a.68.68 0 00-.11-.81c-.25-.2-.46-.18-.63.08zM310.37 441.61c-.18-.11-.51 0-.73.27-.45.55-.19 1 .58 1 .56 0 .67-.95.15-1.27z" fill="#fff"/><ellipse cx="313.09" cy="440.3" rx=".55" ry=".37" fill="#fff"/><path d="M314.2 434.78a.56.56 0 00-.55.55.55.55 0 00.55.55.56.56 0 00.55-.55.57.57 0 00-.55-.55zM319.54 383.27c-.26-.08-.39 0-.3.3.15.47.65.55.71.11.05-.15-.15-.32-.41-.41z" fill="#fff"/><ellipse cx="324.14" cy="337.21" rx=".55" ry=".37" fill="#fff"/><circle cx="325.06" cy="345.31" r=".37" fill="#fff"/><circle cx="323.59" cy="403.12" r=".37" fill="#fff"/><path d="M320.5 378.34c-.43.42-.26.84.33.84.29 0 .55-.15.55-.33 0-.48-.58-.85-.88-.51zM308.12 438.83a.67.67 0 00-.53.33c-.26.43.42.88.9.58s.15-.91-.37-.91z" fill="#fff"/><ellipse cx="323.22" cy="442.33" rx=".37" ry=".55" fill="#fff"/><circle cx="316.78" cy="372.74" r=".55" fill="#fff"/><ellipse cx="292.11" cy="414.9" rx=".55" ry=".37" fill="#fff"/><path d="M290.86 419.37c-.22-.07-.41.17-.41.5s.19.55.41.48a.61.61 0 00.4-.5.57.57 0 00-.4-.48z" fill="#fff"/><ellipse cx="297.08" cy="429.07" rx=".37" ry=".55" fill="#fff"/><path d="M288.77 416.52c-.31.81.09 1.22.65.66.33-.33.34-.55 0-.87s-.42-.31-.65.21zM290.82 272.45c0-.48-.58-.82-.88-.51s-.26.84.33.84c.29 0 .55-.15.55-.33zM296.52 315.53a.62.62 0 00.08.73c.43.44 1.37-.22 1-.73a.6.6 0 00-1.08 0z" fill="#fff"/><ellipse cx="289.35" cy="264.13" rx=".37" ry=".55" fill="#fff"/><ellipse cx="301.87" cy="330.03" rx=".37" ry=".55" fill="#fff"/><ellipse cx="300.02" cy="327.09" rx=".37" ry=".55" fill="#fff"/><ellipse cx="304.07" cy="306.84" rx=".37" ry=".55" fill="#fff"/><path d="M305.35 435.92a.68.68 0 00.12.77c.48.48 1.64 0 1.45-.55a.93.93 0 00-1.57-.22z" fill="#fff"/><circle cx="302.97" cy="438.09" r=".37" fill="#fff"/><path d="M301.39 355.84c-.44.44-.3.89.29.89a.56.56 0 00.55-.56c0-.59-.42-.75-.84-.33zM300.58 434.74c-.33.54.07 1.14.77 1.14.33 0 .5-.25.43-.62-.14-.74-.87-1.05-1.2-.52zM421.23 551.93c-.25-.08-.44.11-.44.44a.58.58 0 00.58.59c.63.04.56-.79-.14-1.03zM503.4 271.68c-.33 0-.52.19-.44.44.24.7 1 .81 1 .15a.58.58 0 00-.56-.59zM504.8 180.17a.57.57 0 00-.4-.48c-.22-.07-.41.16-.41.5s.19.55.41.48a.62.62 0 00.4-.5z" fill="#fff"/><ellipse cx="504.73" cy="267.08" rx=".37" ry=".55" fill="#fff"/><path d="M500 212.84c-.25-.08-.44.11-.44.45a.57.57 0 00.58.58c.69 0 .58-.79-.14-1.03zM505 188c-.31.31 0 .89.51.89.18 0 .33-.26.33-.55-.01-.64-.43-.81-.84-.34zM501.6 268.36a1.06 1.06 0 00-.66.22c-.34.34.14 1.26.66 1.26s1-.92.66-1.26a1.06 1.06 0 00-.66-.22zM503.2 264c.07-.2-.16-.38-.5-.38s-.55.18-.47.38a.56.56 0 00.49.39.54.54 0 00.48-.39zM525.84 213.36c-.28.71.06 1 .8.76a.56.56 0 00.34-.76c-.28-.74-.85-.74-1.14 0zM516.51 311.07c-.2 0-.37.26-.37.55s.17.56.37.56.37-.26.37-.56-.17-.55-.37-.55zM519.24 209.09c-.34 0-.53.19-.44.44.23.7 1 .81 1 .15a.58.58 0 00-.56-.59zM499.91 225.66a.84.84 0 00-.55.4c-.31.52.4 1.23.91.91s.12-1.31-.36-1.31zM514.49 195.1c-.3 0-.56.17-.56.37s.26.36.56.36.55-.17.55-.36-.26-.37-.55-.37z" fill="#fff"/><circle cx="511.72" cy="258.06" r=".37" fill="#fff"/><circle cx="511.36" cy="310.7" r=".37" fill="#fff"/><path d="M513.38 313.28c-.29 0-.55.17-.55.37s.26.37.55.37.55-.17.55-.37-.25-.37-.55-.37zM487.65 207.87c-.43.43-.26.85.33.85.29 0 .55-.16.55-.33 0-.48-.53-.82-.88-.52z" fill="#fff"/><ellipse cx="476.56" cy="124.41" rx=".55" ry=".37" fill="#fff"/><path d="M476.64 184.27a1.22 1.22 0 00-.26.74c0 .55 1 .69 1.28.18s-.66-1.25-1.02-.92zM477.55 87.74a.58.58 0 00.59.59c.33 0 .53-.2.44-.44-.23-.7-1.03-.82-1.03-.15zM474.54 194.88a.58.58 0 00.59.59c.33 0 .52-.2.44-.45-.24-.7-1.03-.81-1.03-.14zM473.66 186.52c-.43.42-.26.85.33.85.29 0 .55-.16.55-.34 0-.47-.54-.81-.88-.51zM480.06 182.58a.37.37 0 10.37.37.35.35 0 00-.37-.37zM475.16 75.81a.57.57 0 00-.55.55.56.56 0 00.55.55.55.55 0 00.55-.55.56.56 0 00-.55-.55zM490.64 111.41a.93.93 0 00-1.57-.22.68.68 0 00.12.77c.48.48 1.64.04 1.45-.55zM491.29 192.89c-.33 0-.56.18-.48.38a.58.58 0 00.5.39.55.55 0 00.48-.39c.07-.2-.17-.38-.5-.38zM490.22 197.67a.58.58 0 00-.59.59c0 .33.2.53.45.44.7-.23.81-1.03.14-1.03zM498.47 223.63c0-.59-.42-.75-.85-.33s0 .88.52.88c.18 0 .33-.25.33-.55zM527.41 208c-.47-.09-.63.07-.53.55a.79.79 0 00.68.68c.79.04.66-1.04-.15-1.23z" fill="#fff"/><circle cx="486.87" cy="113.18" r=".55" fill="#fff"/><circle cx="498.65" cy="271.13" r=".55" fill="#fff"/><ellipse cx="540.63" cy="308.86" rx=".55" ry=".37" fill="#fff"/><path d="M549.24 255.85c-.25-.09-.44.11-.44.44a.58.58 0 00.59.59c.66 0 .55-.8-.15-1.03zM545.6 209.46a.34.34 0 00-.37.36.35.35 0 00.37.37.34.34 0 00.36-.37.34.34 0 00-.36-.36zM553.15 321.75c-.13.21 0 .47.36.6.7.28 1.08 0 .75-.56a.61.61 0 00-1.11-.04zM540.33 295.46c-.3.3 0 .89.52.89.17 0 .33-.26.33-.56 0-.59-.42-.79-.85-.33z" fill="#fff"/><circle cx="472.58" cy="126.06" r=".55" fill="#fff"/><ellipse cx="544.38" cy="215.82" rx=".37" ry=".55" fill="#fff"/><path d="M555.21 264c-.22-.07-.41.17-.41.5s.19.55.41.48a.61.61 0 00.4-.5.57.57 0 00-.4-.48zM528.33 216.14c-.22-.07-.41.16-.41.5s.19.55.41.47a.6.6 0 00.4-.49.57.57 0 00-.4-.48zM570.3 293.24c-.18-.11-.51 0-.72.27-.46.55-.2 1 .57 1 .56-.01.67-.96.15-1.27zM557.55 307.06c.25-.41-.68-1.25-1-.92a1.22 1.22 0 00-.26.74c-.02.55.95.69 1.26.18z" fill="#fff"/><circle cx="562.42" cy="256.51" r=".37" fill="#fff"/><path d="M570.08 306.65a.56.56 0 10.55.56.57.57 0 00-.55-.56zM557.93 327.64a.57.57 0 00-.55.55.55.55 0 101.1 0 .57.57 0 00-.55-.55z" fill="#fff"/><circle cx="539.71" cy="213.51" r=".37" fill="#fff"/><path d="M560.1 265.05c-.33 0-.52.19-.44.44.24.7 1 .82 1 .15a.58.58 0 00-.56-.59zM532 214.83a.58.58 0 00-.58-.59c-.34 0-.53.2-.45.44.21.7 1.03.82 1.03.15z" fill="#fff"/><ellipse cx="530.87" cy="293.58" rx=".37" ry=".55" fill="#fff"/><ellipse cx="531.97" cy="275.54" rx=".37" ry=".55" fill="#fff"/><path d="M530.32 272.78a.68.68 0 00-.11-.81c-.25-.24-.46-.22-.63.08a.68.68 0 00.11.81c.25.24.46.22.63-.08zM529.25 211c-.47-.09-.62.08-.53.56a.81.81 0 00.68.68c.79-.02.66-1.1-.15-1.24zM533.27 296.38c-.29-.48-.81-.53-1.07-.11a.92.92 0 00.14.83c.25.4.44.43.76.11a.76.76 0 00.17-.83zM530.5 305.92a.84.84 0 00-.58.4.65.65 0 001 .81.72.72 0 00-.42-1.21zM535.69 294.19c-.21-.07-.4.17-.4.5s.19.55.4.48a.62.62 0 00.41-.5.59.59 0 00-.41-.48zM536.28 302.46c-.3.3 0 .88.52.88.17 0 .33-.26.33-.55 0-.59-.42-.79-.85-.33zM536 267.63a.84.84 0 00-.55.4c-.31.52.4 1.23.92.91s.1-1.31-.37-1.31zM537.39 297.3c-.45.44-.3.89.29.89a.56.56 0 00.55-.56c0-.63-.42-.75-.84-.33z" fill="#fff"/><ellipse cx="534.74" cy="299.66" rx=".55" ry=".37" fill="#fff"/><path d="M538.29 305.29c-.32.39-.28.64.16 1 .85.7 1.6-.19.81-1-.47-.44-.6-.44-.97 0zM533.63 304.44c-.29 0-.55.18-.55.37s.26.37.55.37.55-.17.55-.37-.25-.37-.55-.37zM475.55 71.35c-.25.41.33.82.8.63l-.51-.88a.71.71 0 00-.29.25zM532.53 196.94a.55.55 0 00.55-.52c0-.62-.54-1-.88-.7s-.2 1.22.33 1.22zM536.39 289.53c0 .34.19.56.41.48a.6.6 0 00.4-.49.56.56 0 00-.4-.48c-.22-.04-.41.16-.41.49zM533.45 218.29c.19 0 .37-.26.37-.55s-.18-.55-.37-.55-.37.26-.37.55.17.55.37.55zM533 209.75c-.23-.7-1-.81-1-.15a.58.58 0 00.59.59c.3 0 .5-.19.41-.44zM534.92 273.89c.2 0 .37-.26.37-.56s-.17-.55-.37-.55-.37.26-.37.55.17.56.37.56zM533.15 278.38c.24.7 1 .81 1 .15a.57.57 0 00-.59-.59c-.3 0-.49.19-.41.44z" fill="#fff"/><circle cx="533.82" cy="291.56" r=".37" fill="#fff"/><path d="M533.08 270.94c.2 0 .37-.26.37-.55s-.17-.55-.37-.55-.37.25-.37.55.17.55.37.55z" fill="#fff"/><circle cx="531.61" cy="188.47" r=".37" fill="#fff"/><circle cx="511.36" cy="197.31" r=".37" fill="#fff"/><circle cx="503.44" cy="172.09" r=".55" fill="#fff"/><path d="M505.1 154.08a.58.58 0 00-.59-.59c-.33 0-.53.2-.44.45.23.7 1.03.81 1.03.14zM529.81 198.48c0-.15-.16-.31-.41-.4s-.39 0-.31.29c.16.48.66.56.72.11zM528.11 195.83a.68.68 0 00-.11-.83c-.25-.24-.46-.22-.63.08a.68.68 0 00.11.81c.25.26.46.24.63-.06zM412.5 466.07a.68.68 0 00.11.81c.25.25.46.22.63-.07a.68.68 0 00-.11-.81c-.25-.25-.46-.22-.63.07zM420.05 469.75a.84.84 0 00-.58.41.64.64 0 001 .81.72.72 0 00-.42-1.22z" fill="#fff"/><ellipse cx="417.73" cy="490.19" rx=".37" ry=".55" fill="#fff"/><path d="M421 496a1 1 0 00.33.76c.41.25 1.21-.72.88-1.05s-1.21-.22-1.21.29z" fill="#fff"/><circle cx="503.26" cy="198.41" r=".37" fill="#fff"/><path d="M423.25 515.63c-.44.44-.29.88.3.88a.56.56 0 00.55-.55c0-.59-.42-.75-.85-.33zM416.66 494.85c-.21-.07-.4.16-.4.49s.19.56.4.48a.61.61 0 00.41-.5.57.57 0 00-.41-.47z" fill="#fff"/><circle cx="414.78" cy="591.99" r=".37" fill="#fff"/><path d="M499.62 291.79l.32.55a.64.64 0 00-.32-.55z" fill="#fff"/><circle cx="538.97" cy="279.41" r=".37" fill="#fff"/><ellipse cx="536.94" cy="276.46" rx=".55" ry=".37" fill="#fff"/><ellipse cx="538.79" cy="292.66" rx=".55" ry=".37" fill="#fff"/><path d="M412.61 488.59c-.21-.07-.4.16-.4.49s.19.56.4.48a.61.61 0 00.41-.49.59.59 0 00-.41-.48zM607.26 377.71a.72.72 0 00.61 1v-1.39a.85.85 0 00-.61.39zM470.08 61.9c-.37-.07-.63.12-.63.45s.34.57.78.57.71-.31.55-.6a1 1 0 00-.7-.42z" fill="#fff"/><ellipse cx="445.82" cy="70.47" rx=".37" ry=".55" fill="#fff"/><path d="M461 173.08c-.25-.08-.44.11-.44.44a.58.58 0 00.59.59c.65 0 .54-.79-.15-1.03zM462.39 68.63a.56.56 0 00-1.11 0 .56.56 0 001.11 0zM462.31 97.42c-.42.42-.26.85.33.85a.57.57 0 00.56-.55c0-.59-.45-.72-.89-.3zM463.74 58.14a.61.61 0 00-1.1 0c-.34.56 0 .85.74.57.33-.1.49-.37.36-.57zM460.44 186.48c-.3.3 0 .89.51.89.18 0 .33-.26.33-.56 0-.59-.42-.75-.84-.33z" fill="#fff"/><circle cx="458.89" cy="183.87" r=".55" fill="#fff"/><circle cx="460" cy="178.71" r=".55" fill="#fff"/><ellipse cx="469.94" cy="193.99" rx=".55" ry=".37" fill="#fff"/><path d="M469 185.52a.68.68 0 00-.54.34c-.26.43.43.88.9.58s.17-.92-.36-.92z" fill="#fff"/><circle cx="466.99" cy="69.73" r=".55" fill="#fff"/><path d="M459 110.07c.07-.21-.17-.39-.5-.39s-.55.18-.48.39a.59.59 0 00.5.38.54.54 0 00.48-.38zM464.89 61c-.42.43-.26.85.33.85.29 0 .55-.16.55-.33 0-.52-.58-.85-.88-.52z" fill="#fff"/><circle cx="463.86" cy="184.79" r=".37" fill="#fff"/><path d="M466.82 56.31c.07-.2-.16-.38-.49-.38s-.56.18-.48.38a.56.56 0 00.49.39.54.54 0 00.48-.39zM502.34 190.68c.29 0 .55-.16.55-.33 0-.48-.58-.82-.89-.52s-.25.85.34.85zM462.06 55.93c.17 0 .33-.26.33-.55 0-.59-.42-.76-.85-.34s.04.89.52.89zM498.32 210.93c.67 0 .56-.79-.14-1-.25-.08-.45.11-.45.44a.58.58 0 00.59.56zM459.81 152.93c.59.37 1.33-.46.85-1-.25-.25-.51-.2-.81.17s-.35.64-.04.83z" fill="#fff"/><circle cx="502.15" cy="216.45" r=".37" fill="#fff"/><path d="M458.89 171.17a.56.56 0 00.55-.56c0-.59-.43-.74-.86-.31s-.28.87.31.87zM499.91 166.59a.8.8 0 00.4-.54c0-.48-1.06-.78-1.31-.37a.69.69 0 00.91.91z" fill="#fff"/><ellipse cx="498.29" cy="184.05" rx=".55" ry=".37" fill="#fff"/><circle cx="455.95" cy="185.71" r=".55" fill="#fff"/><path d="M458.72 70.3c.07-.2-.16-.38-.5-.38s-.55.18-.47.38a.56.56 0 00.49.39.54.54 0 00.48-.39z" fill="#fff"/><ellipse cx="457.23" cy="154.41" rx=".37" ry=".55" fill="#fff"/><path d="M471.3 69.55a.83.83 0 00-.59.41.65.65 0 001 .81.72.72 0 00-.41-1.22zM456.31 173a.67.67 0 00-.11-.81c-.24-.25-.45-.22-.62.07a.67.67 0 00.11.81c.24.26.45.23.62-.07zM441.47 59a.58.58 0 00.59.59c.33 0 .53-.19.44-.44-.23-.68-1.03-.8-1.03-.15z" fill="#fff"/><circle cx="443.68" cy="101.58" r=".37" fill="#fff"/><g style="mix-blend-mode:multiply"><path d="M74.91 509.17h226.65a40 40 0 0040-40v-99.44a40 40 0 0140-40h99.89a40 40 0 0040-40V190a40 40 0 0140-40h290.17" fill="none" stroke="#0263e0" stroke-miterlimit="10" stroke-width="2"/><path d="M74.91 512.92a3.76 3.76 0 113.76-3.75 3.75 3.75 0 01-3.76 3.75z" fill="#0263e0"/><path d="M47.41 544.9l1.66-19.16A7.72 7.72 0 0151.3 521h0M28.49 544.9l-1.65-19.16a7.72 7.72 0 00-2.23-4.74h0M44.26 493.82a7.27 7.27 0 01-6.27-3.6 7.26 7.26 0 01-6.27 3.6 5.63 5.63 0 01-.71 0 1.81 1.81 0 00-2 1.78 8.1 8.1 0 00.67 3.2 9.15 9.15 0 008.2 5.72 9 9 0 009.08-9v0a1.78 1.78 0 00-2-1.7c-.26-.01-.48 0-.7 0zM37.95 495.22v4.26" fill="none" stroke="#0263e0" stroke-miterlimit="10" stroke-width="2"/><path d="M35.08 503.76v3a2.45 2.45 0 01-2.45 2.45 11.69 11.69 0 00-11.7 11.69l.82 21.52a37 37 0 0032.41 0l.84-21.56a11.69 11.69 0 00-11.69-11.69 2.45 2.45 0 01-2.45-2.45v-3" fill="none" stroke="#0263e0" stroke-miterlimit="10" stroke-width="2"/><circle cx="37.95" cy="509.17" r="36.95" fill="none" stroke="#0263e0" stroke-miterlimit="10" stroke-width="2"/><path fill="none" stroke="#0263e0" stroke-miterlimit="10" stroke-width="2" d="M375.04 226.16l-151.92 18.29-9.65-118 191.46 14.24-29.89 85.47zM385.49 196.28L221.64 216M215.71 159.65l177.96 13.24M336.72 135.93l-5.24 95.48M302.79 133.09l-.82 101.87M369.82 138.08l-8.84 90.12M272.47 130.84v107.67M241.84 128.64l1.13 113.42M213.47 126.45l-1.89-23.15h-46.85a2.93 2.93 0 00-2.93 2.93h0a2.93 2.93 0 002.93 2.92h24.48a2.93 2.93 0 002.93-2.92v-2.93M231.75 280.18a13.07 13.07 0 01-12.45-17.09h0a13.07 13.07 0 0112.45-9.09h87"/><circle cx="345.54" cy="280.18" r="10.21" fill="none" stroke="#0263e0" stroke-miterlimit="10" stroke-width="2"/><circle cx="241.04" cy="280.18" r="10.21" fill="none" stroke="#0263e0" stroke-miterlimit="10" stroke-width="2"/><path fill="none" stroke="#0263e0" stroke-miterlimit="10" stroke-width="2" d="M335.33 280.18h-84.08M365.43 280.18h-9.69M429.09 399.83h87.36l-25.5-44.16h-54.76l-18.3-11.36 6.56 11.36h-20.86l25.5 44.16zM615.33 80.41h-87.37l25.5 44.17h54.77l18.29 11.35-6.56-11.35h20.86l-25.49-44.17zM255.58 438.84h-87.36l25.5 44.17h54.76l18.29 11.36-6.56-11.36h20.87l-25.5-44.17zM727.47 204.28L768.63 220"/><path d="M767.29 223.52a3.76 3.76 0 10-2.17-4.86 3.77 3.77 0 002.17 4.86z" fill="#0263e0"/><path fill="none" stroke="#0263e0" stroke-miterlimit="10" stroke-width="2" d="M686.3 212.17l41.17-7.89"/><path d="M728.18 208a3.76 3.76 0 10-4.4-3 3.76 3.76 0 004.4 3z" fill="#0263e0"/><path fill="none" stroke="#0263e0" stroke-miterlimit="10" stroke-width="2" d="M645.13 241.1l41.17-28.93"/><path d="M688.46 215.25a3.76 3.76 0 10-5.24-.92 3.77 3.77 0 005.24.92z" fill="#0263e0"/><path fill="none" stroke="#0263e0" stroke-miterlimit="10" stroke-width="2" d="M603.97 249.76l41.16-8.66"/><path d="M645.91 244.77a3.76 3.76 0 10-4.45-2.9 3.75 3.75 0 004.45 2.9z" fill="#0263e0"/><path fill="none" stroke="#0263e0" stroke-miterlimit="10" stroke-width="2" d="M727.47 177.98l41.16 22.87"/><path d="M766.81 204.14a3.76 3.76 0 10-1.46-5.11 3.75 3.75 0 001.46 5.11z" fill="#0263e0"/><path fill="none" stroke="#0263e0" stroke-miterlimit="10" stroke-width="2" d="M686.3 195.08l41.17-17.1"/><path d="M728.91 181.46a3.76 3.76 0 10-4.91-2 3.76 3.76 0 004.91 2z" fill="#0263e0"/><path fill="none" stroke="#0263e0" stroke-miterlimit="10" stroke-width="2" d="M645.13 227.95l41.17-32.87"/><path d="M688.65 198a3.76 3.76 0 10-5.29-.6 3.77 3.77 0 005.29.6z" fill="#0263e0"/><path fill="none" stroke="#0263e0" stroke-miterlimit="10" stroke-width="2" d="M603.97 249.76l41.16-21.81"/><path d="M646.89 231.27a3.76 3.76 0 10-5.08-1.56 3.76 3.76 0 005.08 1.56z" fill="#0263e0"/><path fill="none" stroke="#0263e0" stroke-miterlimit="10" stroke-width="2" d="M727.47 223.46l41.16 6.3"/><path d="M768.07 233.48a3.76 3.76 0 10-3.15-4.29 3.76 3.76 0 003.15 4.29z" fill="#0263e0"/><path fill="none" stroke="#0263e0" stroke-miterlimit="10" stroke-width="2" d="M686.3 223.46h41.17"/><circle cx="727.47" cy="223.46" r="3.76" fill="#0263e0"/><path fill="none" stroke="#0263e0" stroke-miterlimit="10" stroke-width="2" d="M645.13 253.7l41.17-30.24"/><path d="M688.53 226.49a3.76 3.76 0 10-5.26-.8 3.75 3.75 0 005.26.8z" fill="#0263e0"/><path fill="none" stroke="#0263e0" stroke-miterlimit="10" stroke-width="2" d="M603.97 249.76l41.16 3.94"/><path d="M644.78 257.45a3.76 3.76 0 10-3.39-4.11 3.77 3.77 0 003.39 4.11z" fill="#0263e0"/><circle cx="593.97" cy="208.13" r="5.71" fill="none" stroke="#0263e0" stroke-miterlimit="10" stroke-width="2"/><circle cx="612.22" cy="179.15" r="8.07" fill="none" stroke="#0263e0" stroke-miterlimit="10" stroke-width="2"/><circle cx="625.71" cy="202.41" r="7.29" fill="none" stroke="#0263e0" stroke-miterlimit="10" stroke-width="2"/><path d="M710.57 306.38a29.15 29.15 0 008.55-20.65M689.92 256.54a29.2 29.2 0 1020.65 49.84l-20.65-20.65z" fill="none" stroke="#0263e0" stroke-linejoin="round" stroke-width="2"/><path d="M689.92 256.54v29.19h29.2a29.19 29.19 0 00-29.2-29.19z" fill="none" stroke="#0263e0" stroke-linejoin="round" stroke-width="2"/><path d="M770.78 256.54a29.2 29.2 0 000 58.39v-58.39zM800 285.73a29.19 29.19 0 00-29.19-29.19v29.72l20.37 20.37a29.08 29.08 0 008.82-20.9zM770.78 314.93a29.08 29.08 0 0020.37-8.3l-20.37-20.37zM302.14 704.14a37.89 37.89 0 010-53.57L320.86 632v-36.38a14.93 14.93 0 0114.93-14.92h0a14.92 14.92 0 0114.92 14.92v83.57a58.77 58.77 0 01-98.59 43.22l-76.68-76.53a11.55 11.55 0 0116.34-16.34l-16.45-16.45a14.91 14.91 0 010-21.1h0a14.91 14.91 0 0121.1 0 14.93 14.93 0 1121.11-21.11L228.68 582a14.91 14.91 0 010-21.1h0a14.93 14.93 0 0121.11 0l71.07 71.1M228.68 582.02l39.7 39.7M196.43 591.99l50.84 50.83M191.78 629.54l34.38 34.39M305.82 600.65a157 157 0 00-42.28-42.27M306.33 586.18A105.12 105.12 0 00278 557.86M211 695.47a157 157 0 01-42.27-42.28M196.53 696a105.12 105.12 0 01-28.32-28.32" fill="none" stroke="#0263e0" stroke-miterlimit="10" stroke-width="2"/><circle cx="763.86" cy="92.33" r="27" fill="none" stroke="#0263e0" stroke-miterlimit="10" stroke-width="2"/><path d="M770.77 105.64a15 15 0 01-20.22-6.41M773.41 85.39l-2.57 8.1M760.06 81.15l-2.57 8.11M851.62 119.33l30.71 30.71-30.71 30.71v-61.42zM35.08 503.76v3a2.45 2.45 0 01-2.45 2.45 11.57 11.57 0 00-4.42.87 9.78 9.78 0 0019.49 0 11.57 11.57 0 00-4.42-.87 2.45 2.45 0 01-2.45-2.45v-3" fill="none" stroke="#0263e0" stroke-miterlimit="10" stroke-width="2"/></g><path d="M65 523.4c-1.66-3.88 2-5.45.36-9.34s-5.34-2.32-7-6.21 2-5.45.37-9.34-5.24-2.37-6.93-6.06a14.22 14.22 0 00-27.78 0c-1.68 3.69-5.28 2.22-6.92 6.06s2 5.46.37 9.34-5.34 2.32-7 6.21 2 5.46.36 9.34c-1 2.3-2.66 2.7-4.21 3.43a36.21 36.21 0 0014.06 13.88l-.79-19.81a12.72 12.72 0 0112.7-12.73 1.45 1.45 0 001.45-1.45v-2.07a10.42 10.42 0 01-5.35-5.5 9.38 9.38 0 01-.75-3.58 2.72 2.72 0 01.79-1.95 2.91 2.91 0 012.05-.85h.3a5.88 5.88 0 00.6 0 6.29 6.29 0 005.41-3.11l.86-1.47.86 1.47a6.31 6.31 0 005.41 3.11 5.25 5.25 0 00.56 0h.27a2.78 2.78 0 012.84 2.7 10 10 0 01-6.1 9.21v2a1.45 1.45 0 001.45 1.45A12.7 12.7 0 0156 520.86l-.78 19.85a36.21 36.21 0 0014.06-13.88c-1.59-.73-3.28-1.13-4.28-3.43z" fill="#f58a8a"/></g></svg>